<?xml version="1.0" encoding="utf-8"?>
<!-- Svg Vector Icons : http://www.onlinewebfonts.com/icon -->
<!DOCTYPE svg PUBLIC "-//W3C//DTD SVG 1.1//EN" "http://www.w3.org/Graphics/SVG/1.1/DTD/svg11.dtd">
<svg version="1.1" xmlns="http://www.w3.org/2000/svg" xmlns:xlink="http://www.w3.org/1999/xlink" x="0px" y="0px" viewBox="0 0 1000 1000" enable-background="new 0 0 1000 1000" xml:space="preserve">
<metadata> Svg Vector Icons : http://www.onlinewebfonts.com/icon </metadata>
<g><path d="M923.3,100.3l-354.1,0.2l-0.2-46c0-24.6-19.9-44.5-44.5-44.5c-8.1,0-15.7,2.2-22.2,6c-6.5-3.8-14.1-6-22.2-6c-24.6,0-44.5,19.9-44.5,44.5l0.2,46.1l-255.5,0.1c-3.6-0.9-7.4-1.4-11.3-1.4c-3.9,0-7.7,0.5-11.3,1.5l-81.1,0c-24.6,0-44.5,19.9-44.5,44.5c0,24.6,19.9,44.5,44.5,44.5l47.9,0l0.3,663.9h0.1v47.2c0,49.1,39.8,88.9,88.9,88.9h44.5v0.4l489.2-0.3v-0.1H792c48.5,0,87.9-38.8,88.9-87.1l-0.4-625.5c0-24.6-19.9-44.5-44.5-44.5c-24.6,0-44.5,19.9-44.5,44.5l0.3,543.4c-1.6,66.9-20.7,79.2-88.8,79.2l46.2,1.1l-504.6,0.3l58.2-1.4c-69.7,0-88.1-12.8-88.9-83.6l0.5,85h-0.6l-0.3-711.5l263.3-0.1c1.2,0.1,2.4,0.2,3.7,0.2c1.3,0,2.5-0.1,3.7-0.2l36.8,0c1.3,0.1,2.6,0.2,3.9,0.2c1.3,0,2.7-0.1,4-0.2l394.4-0.2c24.6,0,44.5-19.9,44.5-44.5C967.8,120.2,947.9,100.3,923.3,100.3z M791.9,827.9l0,72.8h-0.5L791.9,827.9z M214,816.1l0-5.3C213.9,812.5,213.9,814.3,214,816.1z M613.5,232.3c-24.6,0-44.5,19.9-44.5,44.5l0.4,535.4c0,24.6,19.9,44.5,44.5,44.5c24.6,0,44.5-19.9,44.5-44.5L658,276.8C658,252.3,638.1,232.3,613.5,232.3z M391.1,232.3c-24.6,0-44.5,19.9-44.5,44.5l0.4,535.4c0,24.6,19.9,44.5,44.5,44.5c24.6,0,44.5-19.9,44.5-44.5l-0.4-535.4C435.6,252.3,415.7,232.3,391.1,232.3z"/></g>
</svg>